<svg xmlns="http://www.w3.org/2000/svg" viewBox="0 0 512 512" width="192" height="192">
  <rect width="512" height="512" rx="100" fill="#111111"/>
  <rect x="24" y="24" width="464" height="464" rx="80" fill="none" stroke="#FFD100" stroke-width="12"/>
  <g transform="translate(100, 100) scale(0.61)">
    <path d="M 60 140 L 60 70 A 10 10 0 0 1 70 60 L 140 60" fill="none" stroke="#FFD100" stroke-width="24" stroke-linecap="round"/>
    <path d="M 372 60 L 442 60 A 10 10 0 0 1 452 70 L 452 140" fill="none" stroke="#FFD100" stroke-width="24" stroke-linecap="round"/>
    <path d="M 452 372 L 452 442 A 10 10 0 0 1 442 452 L 372 452" fill="none" stroke="#FFD100" stroke-width="24" stroke-linecap="round"/>
    <path d="M 140 452 L 70 452 A 10 10 0 0 1 60 442 L 60 372" fill="none" stroke="#FFD100" stroke-width="24" stroke-linecap="round"/>
    <circle cx="256" cy="210" r="75" fill="#FFD100"/>
    <path d="M 160 380 C 160 300 352 300 352 380 Z" fill="#FFD100"/>
    <line x1="90" y1="256" x2="422" y2="256" stroke="#22C55E" stroke-width="12" stroke-linecap="round"/>
    <circle cx="360" cy="360" r="50" fill="#111111" stroke="#FFD100" stroke-width="10"/>
    <polyline points="360,330 360,360 380,370" fill="none" stroke="#22C55E" stroke-width="8" stroke-linecap="round" stroke-linejoin="round"/>
  </g>
  <text x="256" y="440" font-family="system-ui, -apple-system, sans-serif" font-weight="900" font-size="46" fill="#FFD100" text-anchor="middle" letter-spacing="4">MP CARGAS</text>
</svg>
